<svg xmlns="http://www.w3.org/2000/svg" viewBox="0 0 360 80" width="360" height="80">
  <!-- Icon container -->
  <rect width="72" height="72" x="4" y="4" rx="14" fill="#1E293B"/>
  <!-- P stem = entrance road -->
  <rect x="18" y="14" width="7" height="48" rx="2" fill="#3B82F6"/>
  <!-- Road dashes -->
  <rect x="20.5" y="40" width="2" height="4" rx="1" fill="#1E293B" opacity="0.5"/>
  <rect x="20.5" y="48" width="2" height="4" rx="1" fill="#1E293B" opacity="0.5"/>
  <rect x="20.5" y="56" width="2" height="4" rx="1" fill="#1E293B" opacity="0.5"/>
  <!-- P curve -->
  <path d="M21 14 H38 C50 14 50 38 38 38 H25" fill="none" stroke="#3B82F6" stroke-width="7" stroke-linecap="round" stroke-linejoin="round"/>
  <!-- H left column -->
  <rect x="44" y="14" width="6" height="48" rx="2" fill="#3B82F6"/>
  <!-- H right column -->
  <rect x="60" y="14" width="6" height="48" rx="2" fill="#3B82F6"/>
  <!-- H crossbar -->
  <rect x="44" y="34" width="22" height="6" rx="2" fill="#3B82F6"/>
  <!-- Bay lines left -->
  <rect x="41" y="20" width="4" height="1" rx="0.5" fill="#60A5FA" opacity="0.5"/>
  <rect x="41" y="26" width="4" height="1" rx="0.5" fill="#60A5FA" opacity="0.5"/>
  <rect x="41" y="44" width="4" height="1" rx="0.5" fill="#60A5FA" opacity="0.5"/>
  <rect x="41" y="50" width="4" height="1" rx="0.5" fill="#60A5FA" opacity="0.5"/>
  <rect x="41" y="56" width="4" height="1" rx="0.5" fill="#60A5FA" opacity="0.5"/>
  <!-- Bay lines right -->
  <rect x="65" y="20" width="4" height="1" rx="0.5" fill="#60A5FA" opacity="0.5"/>
  <rect x="65" y="26" width="4" height="1" rx="0.5" fill="#60A5FA" opacity="0.5"/>
  <rect x="65" y="44" width="4" height="1" rx="0.5" fill="#60A5FA" opacity="0.5"/>
  <rect x="65" y="50" width="4" height="1" rx="0.5" fill="#60A5FA" opacity="0.5"/>
  <rect x="65" y="56" width="4" height="1" rx="0.5" fill="#60A5FA" opacity="0.5"/>
  <!-- Text: ParkHub -->
  <text x="90" y="38" font-family="system-ui,-apple-system,'Segoe UI',sans-serif" font-size="28" font-weight="700" fill="#1E293B">Park</text>
  <text x="186" y="38" font-family="system-ui,-apple-system,'Segoe UI',sans-serif" font-size="28" font-weight="700" fill="#3B82F6">Hub</text>
  <!-- Tagline -->
  <text x="90" y="58" font-family="system-ui,-apple-system,'Segoe UI',sans-serif" font-size="12" fill="#94A3B8" letter-spacing="0.5">Smart Parking Management</text>
</svg>
