<svg xmlns="http://www.w3.org/2000/svg" viewBox="0 0 800 500" width="800" height="500">
  <defs><filter id="s"><feDropShadow dx="0" dy="4" stdDeviation="8" flood-opacity="0.15"/></filter></defs>
  <rect width="800" height="500" fill="#f1f5f9"/>
  <!-- Phone frame -->
  <rect x="280" y="20" width="240" height="460" rx="24" fill="#0f172a" filter="url(#s)"/>
  <rect x="286" y="26" width="228" height="448" rx="20" fill="#f8fafc"/>
  <!-- Status bar -->
  <rect x="286" y="26" width="228" height="32" rx="20" fill="#3b82f6"/>
  <text x="400" y="47" text-anchor="middle" fill="white" font-family="system-ui" font-size="10" font-weight="600">ParkHub</text>
  <!-- Content -->
  <text x="310" y="82" fill="#0f172a" font-family="system-ui" font-size="14" font-weight="700">Dashboard</text>
  <!-- Mini stats -->
  <rect x="298" y="92" width="100" height="50" rx="8" fill="white" stroke="#e2e8f0" stroke-width="1"/>
  <text x="310" y="112" fill="#64748b" font-family="system-ui" font-size="8">Available</text>
  <text x="310" y="130" fill="#22c55e" font-family="system-ui" font-size="16" font-weight="700">156</text>
  <rect x="404" y="92" width="100" height="50" rx="8" fill="white" stroke="#e2e8f0" stroke-width="1"/>
  <text x="416" y="112" fill="#64748b" font-family="system-ui" font-size="8">Occupied</text>
  <text x="416" y="130" fill="#ef4444" font-family="system-ui" font-size="16" font-weight="700">72</text>
  <!-- Mini grid -->
  <rect x="298" y="152" width="206" height="200" rx="8" fill="white" stroke="#e2e8f0" stroke-width="1"/>
  <text x="310" y="172" fill="#0f172a" font-family="system-ui" font-size="10" font-weight="600">Quick Book</text>
  <g transform="translate(306,182)">
    <rect width="36" height="40" rx="6" fill="#22c55e"/><text x="18" y="25" text-anchor="middle" fill="white" font-family="system-ui" font-size="9" font-weight="600">A1</text>
    <rect x="42" width="36" height="40" rx="6" fill="#22c55e"/><text x="60" y="25" text-anchor="middle" fill="white" font-family="system-ui" font-size="9" font-weight="600">A2</text>
    <rect x="84" width="36" height="40" rx="6" fill="#d1d5db"/><text x="102" y="25" text-anchor="middle" fill="#6b7280" font-family="system-ui" font-size="9" font-weight="600">A3</text>
    <rect x="126" width="36" height="40" rx="6" fill="#22c55e"/><text x="144" y="25" text-anchor="middle" fill="white" font-family="system-ui" font-size="9" font-weight="600">A4</text>
    <rect y="48" width="36" height="40" rx="6" fill="#f59e0b"/><text x="18" y="73" text-anchor="middle" fill="white" font-family="system-ui" font-size="9" font-weight="600">B1</text>
    <rect x="42" y="48" width="36" height="40" rx="6" fill="#22c55e"/><text x="60" y="73" text-anchor="middle" fill="white" font-family="system-ui" font-size="9" font-weight="600">B2</text>
    <rect x="84" y="48" width="36" height="40" rx="6" fill="#22c55e"/><text x="102" y="73" text-anchor="middle" fill="white" font-family="system-ui" font-size="9" font-weight="600">B3</text>
    <rect x="126" y="48" width="36" height="40" rx="6" fill="#d1d5db"/><text x="144" y="73" text-anchor="middle" fill="#6b7280" font-family="system-ui" font-size="9" font-weight="600">B4</text>
  </g>
  <!-- Bottom nav -->
  <rect x="286" y="432" width="228" height="42" rx="0" fill="white" stroke="#e2e8f0" stroke-width="1"/>
  <text x="330" y="458" text-anchor="middle" fill="#3b82f6" font-family="system-ui" font-size="8" font-weight="600">Home</text>
  <text x="400" y="458" text-anchor="middle" fill="#94a3b8" font-family="system-ui" font-size="8">Book</text>
  <text x="470" y="458" text-anchor="middle" fill="#94a3b8" font-family="system-ui" font-size="8">Profile</text>
</svg>
