<svg xmlns="http://www.w3.org/2000/svg" width="800" height="500" viewBox="0 0 800 500">
  <rect width="800" height="500" fill="#0f172a"/>
  <text x="400" y="40" text-anchor="middle" font-family="system-ui, sans-serif" font-size="20" font-weight="700" fill="#f8fafc">Farbthemen</text>
  <text x="400" y="62" text-anchor="middle" font-family="system-ui, sans-serif" font-size="13" fill="#94a3b8">10 Themes · Dark / Light Mode</text>
  <!-- Dark/Light toggle -->
  <rect x="340" y="75" width="120" height="32" rx="16" fill="#1e293b" stroke="#334155" stroke-width="1"/>
  <rect x="342" y="77" width="58" height="28" rx="14" fill="#3b82f6"/>
  <text x="371" y="96" text-anchor="middle" font-family="system-ui, sans-serif" font-size="11" font-weight="600" fill="#fff">🌙 Dark</text>
  <text x="431" y="96" text-anchor="middle" font-family="system-ui, sans-serif" font-size="11" fill="#94a3b8">☀️ Light</text>
  <!-- Theme grid: 2 rows of 5 -->
  <!-- Row 1 -->
  <g transform="translate(40, 125)">
    <rect width="136" height="80" rx="14" fill="#1e293b" stroke="#3b82f6" stroke-width="2"/>
    <circle cx="25" cy="25" r="12" fill="#3b82f6"/>
    <circle cx="50" cy="25" r="6" fill="#1d4ed8"/>
    <circle cx="70" cy="25" r="6" fill="#60a5fa"/>
    <text x="20" y="55" font-family="system-ui, sans-serif" font-size="12" font-weight="600" fill="#f8fafc">Default Blue</text>
    <text x="20" y="70" font-family="system-ui, sans-serif" font-size="9" fill="#64748b">Standard</text>
    <text x="118" y="70" font-family="system-ui, sans-serif" font-size="10" fill="#3b82f6">✓</text>
  </g>
  <g transform="translate(190, 125)">
    <rect width="136" height="80" rx="14" fill="#1e293b" stroke="#334155" stroke-width="1"/>
    <circle cx="25" cy="25" r="12" fill="#b58900"/>
    <circle cx="50" cy="25" r="6" fill="#268bd2"/>
    <circle cx="70" cy="25" r="6" fill="#2aa198"/>
    <text x="20" y="55" font-family="system-ui, sans-serif" font-size="12" font-weight="500" fill="#cbd5e1">Solarized</text>
    <text x="20" y="70" font-family="system-ui, sans-serif" font-size="9" fill="#64748b">Warm</text>
  </g>
  <g transform="translate(340, 125)">
    <rect width="136" height="80" rx="14" fill="#1e293b" stroke="#334155" stroke-width="1"/>
    <circle cx="25" cy="25" r="12" fill="#bd93f9"/>
    <circle cx="50" cy="25" r="6" fill="#ff79c6"/>
    <circle cx="70" cy="25" r="6" fill="#50fa7b"/>
    <text x="20" y="55" font-family="system-ui, sans-serif" font-size="12" font-weight="500" fill="#cbd5e1">Dracula</text>
    <text x="20" y="70" font-family="system-ui, sans-serif" font-size="9" fill="#64748b">Purple</text>
  </g>
  <g transform="translate(490, 125)">
    <rect width="136" height="80" rx="14" fill="#1e293b" stroke="#334155" stroke-width="1"/>
    <circle cx="25" cy="25" r="12" fill="#88c0d0"/>
    <circle cx="50" cy="25" r="6" fill="#81a1c1"/>
    <circle cx="70" cy="25" r="6" fill="#5e81ac"/>
    <text x="20" y="55" font-family="system-ui, sans-serif" font-size="12" font-weight="500" fill="#cbd5e1">Nord</text>
    <text x="20" y="70" font-family="system-ui, sans-serif" font-size="9" fill="#64748b">Arctic</text>
  </g>
  <g transform="translate(640, 125)">
    <rect width="136" height="80" rx="14" fill="#1e293b" stroke="#334155" stroke-width="1"/>
    <circle cx="25" cy="25" r="12" fill="#fabd2f"/>
    <circle cx="50" cy="25" r="6" fill="#fb4934"/>
    <circle cx="70" cy="25" r="6" fill="#83a598"/>
    <text x="20" y="55" font-family="system-ui, sans-serif" font-size="12" font-weight="500" fill="#cbd5e1">Gruvbox</text>
    <text x="20" y="70" font-family="system-ui, sans-serif" font-size="9" fill="#64748b">Retro</text>
  </g>
  <!-- Row 2 -->
  <g transform="translate(40, 220)">
    <rect width="136" height="80" rx="14" fill="#1e293b" stroke="#334155" stroke-width="1"/>
    <circle cx="25" cy="25" r="12" fill="#cba6f7"/>
    <circle cx="50" cy="25" r="6" fill="#f38ba8"/>
    <circle cx="70" cy="25" r="6" fill="#a6e3a1"/>
    <text x="20" y="55" font-family="system-ui, sans-serif" font-size="12" font-weight="500" fill="#cbd5e1">Catppuccin</text>
    <text x="20" y="70" font-family="system-ui, sans-serif" font-size="9" fill="#64748b">Pastel</text>
  </g>
  <g transform="translate(190, 220)">
    <rect width="136" height="80" rx="14" fill="#1e293b" stroke="#334155" stroke-width="1"/>
    <circle cx="25" cy="25" r="12" fill="#7aa2f7"/>
    <circle cx="50" cy="25" r="6" fill="#bb9af7"/>
    <circle cx="70" cy="25" r="6" fill="#9ece6a"/>
    <text x="20" y="55" font-family="system-ui, sans-serif" font-size="12" font-weight="500" fill="#cbd5e1">Tokyo Night</text>
    <text x="20" y="70" font-family="system-ui, sans-serif" font-size="9" fill="#64748b">Neon</text>
  </g>
  <g transform="translate(340, 220)">
    <rect width="136" height="80" rx="14" fill="#1e293b" stroke="#334155" stroke-width="1"/>
    <circle cx="25" cy="25" r="12" fill="#61afef"/>
    <circle cx="50" cy="25" r="6" fill="#c678dd"/>
    <circle cx="70" cy="25" r="6" fill="#98c379"/>
    <text x="20" y="55" font-family="system-ui, sans-serif" font-size="12" font-weight="500" fill="#cbd5e1">One Dark</text>
    <text x="20" y="70" font-family="system-ui, sans-serif" font-size="9" fill="#64748b">Atom</text>
  </g>
  <g transform="translate(490, 220)">
    <rect width="136" height="80" rx="14" fill="#1e293b" stroke="#334155" stroke-width="1"/>
    <circle cx="25" cy="25" r="12" fill="#ebbcba"/>
    <circle cx="50" cy="25" r="6" fill="#c4a7e7"/>
    <circle cx="70" cy="25" r="6" fill="#31748f"/>
    <text x="20" y="55" font-family="system-ui, sans-serif" font-size="12" font-weight="500" fill="#cbd5e1">Rosé Pine</text>
    <text x="20" y="70" font-family="system-ui, sans-serif" font-size="9" fill="#64748b">Elegant</text>
  </g>
  <g transform="translate(640, 220)">
    <rect width="136" height="80" rx="14" fill="#1e293b" stroke="#334155" stroke-width="1"/>
    <circle cx="25" cy="25" r="12" fill="#a7c080"/>
    <circle cx="50" cy="25" r="6" fill="#d699b6"/>
    <circle cx="70" cy="25" r="6" fill="#7fbbb3"/>
    <text x="20" y="55" font-family="system-ui, sans-serif" font-size="12" font-weight="500" fill="#cbd5e1">Everforest</text>
    <text x="20" y="70" font-family="system-ui, sans-serif" font-size="9" fill="#64748b">Nature</text>
  </g>
  <!-- Preview section -->
  <text x="400" y="340" text-anchor="middle" font-family="system-ui, sans-serif" font-size="14" font-weight="600" fill="#f8fafc">Vorschau: Default Blue</text>
  <!-- Mini dashboard preview -->
  <rect x="150" y="355" width="500" height="130" rx="14" fill="#1e293b" stroke="#334155" stroke-width="1"/>
  <rect x="170" y="370" width="150" height="44" rx="10" fill="#3b82f6"/>
  <text x="245" y="397" text-anchor="middle" font-family="system-ui, sans-serif" font-size="12" font-weight="600" fill="#fff">Jetzt buchen →</text>
  <rect x="170" y="424" width="70" height="44" rx="10" fill="#0f172a"/>
  <text x="205" y="443" text-anchor="middle" font-family="system-ui, sans-serif" font-size="18" font-weight="700" fill="#34d399">8</text>
  <text x="205" y="460" text-anchor="middle" font-family="system-ui, sans-serif" font-size="8" fill="#94a3b8">Frei</text>
  <rect x="250" y="424" width="70" height="44" rx="10" fill="#0f172a"/>
  <text x="285" y="443" text-anchor="middle" font-family="system-ui, sans-serif" font-size="18" font-weight="700" fill="#f8fafc">33%</text>
  <text x="285" y="460" text-anchor="middle" font-family="system-ui, sans-serif" font-size="8" fill="#94a3b8">Auslastung</text>
  <!-- Mini slot grid -->
  <g transform="translate(370, 370)">
    <rect width="36" height="26" rx="5" fill="#064e3b" stroke="#34d399" stroke-width="1"/>
    <text x="18" y="18" text-anchor="middle" font-family="system-ui, sans-serif" font-size="8" fill="#34d399">A1</text>
    <rect x="42" width="36" height="26" rx="5" fill="#451a03" stroke="#92400e" stroke-width="1"/>
    <text x="60" y="18" text-anchor="middle" font-family="system-ui, sans-serif" font-size="8" fill="#f59e0b">A2</text>
    <rect x="84" width="36" height="26" rx="5" fill="#1e3a5f" stroke="#3b82f6" stroke-width="2"/>
    <text x="102" y="18" text-anchor="middle" font-family="system-ui, sans-serif" font-size="8" font-weight="700" fill="#60a5fa">A3</text>
    <rect x="126" width="36" height="26" rx="5" fill="#064e3b" stroke="#34d399" stroke-width="1"/>
    <text x="144" y="18" text-anchor="middle" font-family="system-ui, sans-serif" font-size="8" fill="#34d399">A4</text>
    <rect x="168" width="36" height="26" rx="5" fill="#064e3b" stroke="#34d399" stroke-width="1"/>
    <text x="186" y="18" text-anchor="middle" font-family="system-ui, sans-serif" font-size="8" fill="#34d399">A5</text>
    <rect x="210" width="36" height="26" rx="5" fill="#064e3b" stroke="#34d399" stroke-width="1"/>
    <text x="228" y="18" text-anchor="middle" font-family="system-ui, sans-serif" font-size="8" fill="#34d399">A6</text>
  </g>
  <g transform="translate(370, 440)">
    <rect width="36" height="26" rx="5" fill="#064e3b" stroke="#34d399" stroke-width="1"/>
    <text x="18" y="18" text-anchor="middle" font-family="system-ui, sans-serif" font-size="8" fill="#34d399">B1</text>
    <rect x="42" width="36" height="26" rx="5" fill="#064e3b" stroke="#34d399" stroke-width="1"/>
    <text x="60" y="18" text-anchor="middle" font-family="system-ui, sans-serif" font-size="8" fill="#34d399">B2</text>
    <rect x="84" width="36" height="26" rx="5" fill="#451a03" stroke="#92400e" stroke-width="1"/>
    <text x="102" y="18" text-anchor="middle" font-family="system-ui, sans-serif" font-size="8" fill="#f59e0b">B3</text>
    <rect x="126" width="36" height="26" rx="5" fill="#064e3b" stroke="#34d399" stroke-width="1"/>
    <text x="144" y="18" text-anchor="middle" font-family="system-ui, sans-serif" font-size="8" fill="#34d399">B4</text>
    <rect x="168" width="36" height="26" rx="5" fill="#064e3b" stroke="#34d399" stroke-width="1"/>
    <text x="186" y="18" text-anchor="middle" font-family="system-ui, sans-serif" font-size="8" fill="#34d399">B5</text>
    <rect x="210" width="36" height="26" rx="5" fill="#064e3b" stroke="#34d399" stroke-width="1"/>
    <text x="228" y="18" text-anchor="middle" font-family="system-ui, sans-serif" font-size="8" fill="#34d399">B6</text>
  </g>
  <!-- Road label -->
  <rect x="370" y="401" width="246" height="14" rx="3" fill="#0f172a"/>
  <text x="493" y="411" text-anchor="middle" font-family="system-ui, sans-serif" font-size="7" fill="#475569">Zufahrt</text>
</svg>
